<?xml version="1.0" encoding="UTF-8"?>
<!DOCTYPE svg PUBLIC "-//W3C//DTD SVG 1.1//EN" "http://www.w3.org/Graphics/SVG/1.1/DTD/svg11.dtd">
<!-- Creator: CorelDRAW X7 -->
<svg xmlns="http://www.w3.org/2000/svg" xml:space="preserve" width="6.35mm" height="6.35mm" version="1.1" style="shape-rendering:geometricPrecision; text-rendering:geometricPrecision; image-rendering:optimizeQuality; fill-rule:evenodd; clip-rule:evenodd"
viewBox="0 0 635 635"
 xmlns:xlink="http://www.w3.org/1999/xlink">
 <defs>
  <style type="text/css">
   <![CDATA[
    .fil0 {fill:#D4D5D6}
   ]]>
  </style>
 </defs>
 <g id="Слой_x0020_1">
  <metadata id="CorelCorpID_0Corel-Layer"/>
  <path class="fil0" d="M318 463c29,0 52,-24 52,-53 0,-29 -23,-53 -52,-53 -30,0 -53,24 -53,53 0,29 23,53 53,53zm158 -238l-26 0 0 -53c0,-73 -59,-132 -132,-132 -74,0 -133,59 -133,132l0 53 -26 0c-29,0 -53,24 -53,53l0 264c0,29 24,53 53,53l317 0c29,0 53,-24 53,-53l0 -264c0,-29 -24,-53 -53,-53l0 0zm-241 -53c0,-45 37,-82 83,-82 45,0 82,37 82,82l0 53 -165 0 0 -53zm241 370l-317 0 0 -264 317 0 0 264 0 0z"/>
 </g>
</svg>
