<?xml version="1.0" encoding="UTF-8"?>
<!DOCTYPE svg PUBLIC "-//W3C//DTD SVG 1.1//EN" "http://www.w3.org/Graphics/SVG/1.1/DTD/svg11.dtd">
<!-- Creator: CorelDRAW X7 -->
<svg xmlns="http://www.w3.org/2000/svg" xml:space="preserve" width="6.35mm" height="6.35mm" version="1.1" style="shape-rendering:geometricPrecision; text-rendering:geometricPrecision; image-rendering:optimizeQuality; fill-rule:evenodd; clip-rule:evenodd"
viewBox="0 0 635 635"
 xmlns:xlink="http://www.w3.org/1999/xlink">
 <defs>
  <style type="text/css">
   <![CDATA[
    .fil0 {fill:#D4D5D6}
   ]]>
  </style>
 </defs>
 <g id="Слой_x0020_1">
  <metadata id="CorelCorpID_0Corel-Layer"/>
  <g>
   <path class="fil0" d="M318 156c30,0 55,25 55,56 0,30 -25,55 -55,55 -31,0 -56,-25 -56,-55 0,-31 25,-56 56,-56l0 0zm0 238c78,0 161,39 161,56l0 29 -323 0 0 -29c0,-17 83,-56 162,-56l0 0zm0 -288c-59,0 -106,47 -106,106 0,58 47,106 106,106 58,0 105,-48 105,-106 0,-59 -47,-106 -105,-106l0 0zm0 238c-71,0 -212,35 -212,106l0 79 423 0 0 -79c0,-71 -141,-106 -211,-106z"/>
  </g>
 </g>
</svg>
